<svg width="1441" height="1024" viewBox="0 0 1441 1024" fill="none" xmlns="http://www.w3.org/2000/svg">
<g clip-path="url(#clip0)">
<path d="M1480.68 -0.9133H-22.6204V1037.1H1480.68V-0.9133Z" fill="url(#paint0_linear)"/>
<path fill-rule="evenodd" clip-rule="evenodd" d="M1493.93 168.838C1493.93 168.838 1403.8 252.235 1392.4 326.739C1380.99 401.243 1312.03 493.229 1210.98 518.089C1109.93 542.953 967.998 537.189 801.363 636.914C704.701 694.765 592.851 793.384 470.207 836.547C347.562 879.71 -63.7612 921.376 -63.7612 921.376V-18.2424H1499L1493.93 168.838Z" fill="url(#paint1_linear)"/>
<path fill-rule="evenodd" clip-rule="evenodd" d="M1295.26 -10.0763C1295.26 -10.0763 1363.96 210.121 1097.42 358.67C830.875 507.22 812.975 361.079 590.698 486.087C368.423 611.091 237.837 847.797 -35.9363 847.797V-10.0763H1295.26Z" fill="#FF8D30"/>
<path fill-rule="evenodd" clip-rule="evenodd" d="M1295.26 -10.0763C1295.26 -10.0763 1363.96 210.121 1097.42 358.67C830.875 507.22 812.975 361.079 590.698 486.087C368.423 611.091 237.837 847.797 -35.9363 847.797V-10.0763H1295.26Z" fill="url(#paint2_linear)"/>
<path fill-rule="evenodd" clip-rule="evenodd" d="M1295.26 -10.0763C1295.26 -10.0763 1363.96 210.121 1097.42 358.67C830.875 507.22 812.975 361.079 590.698 486.087C368.423 611.091 237.837 847.797 -35.9363 847.797V-10.0763H1295.26Z" fill="url(#paint3_linear)"/>
<path fill-rule="evenodd" clip-rule="evenodd" d="M-33.6713 327.017C-33.6713 327.017 57.7584 320.188 139.342 269.283C220.926 218.379 231.178 145.979 339.823 116.23C448.467 86.4812 646.592 88.7591 728.989 -10.0763H-35.9363L-33.6713 327.017Z" fill="url(#paint4_linear)"/>
<path opacity="0.5" fill-rule="evenodd" clip-rule="evenodd" d="M1478.65 693.573C1478.65 693.573 1321.17 700.402 1180.64 751.307C1040.12 802.211 1022.46 874.611 835.322 904.36C648.185 934.109 306.923 931.831 164.996 1030.67H1482.55L1478.65 693.573Z" fill="#EA5300"/>
<path fill-rule="evenodd" clip-rule="evenodd" d="M1493.93 168.838C1493.93 168.838 1403.8 252.235 1392.4 326.739C1380.99 401.243 1312.03 493.229 1210.98 518.089C1109.93 542.953 966.58 536.009 801.363 636.914C705.408 695.522 592.851 793.384 470.207 836.547C347.562 879.71 -63.7612 921.376 -63.7612 921.376V-18.2424H1499L1493.93 168.838Z" stroke="#D9573D" stroke-width="2" stroke-miterlimit="1.5" stroke-linecap="round" stroke-linejoin="round"/>
<path fill-rule="evenodd" clip-rule="evenodd" d="M1295.26 -10.0763C1295.26 -10.0763 1363.96 210.121 1097.42 358.67C830.874 507.22 812.975 361.079 590.698 486.087C368.423 611.091 237.837 847.797 -35.9363 847.797V-10.0763H1295.26Z" stroke="#EB7E20" stroke-width="2" stroke-miterlimit="1.5" stroke-linecap="round" stroke-linejoin="round"/>
</g>
<defs>
<linearGradient id="paint0_linear" x1="1480.68" y1="1037.1" x2="510.006" y2="-368.685" gradientUnits="userSpaceOnUse">
<stop stop-color="#FB8232"/>
<stop offset="1" stop-color="#E45346"/>
</linearGradient>
<linearGradient id="paint1_linear" x1="28.9579" y1="843.165" x2="1145.72" y2="-136.458" gradientUnits="userSpaceOnUse">
<stop stop-color="#DE9B38"/>
<stop offset="1" stop-color="#FF943D"/>
</linearGradient>
<linearGradient id="paint2_linear" x1="41.3235" y1="811.586" x2="146.467" y2="260.684" gradientUnits="userSpaceOnUse">
<stop stop-color="#DDAA43"/>
<stop offset="1" stop-color="#DDAA43" stop-opacity="0"/>
</linearGradient>
<linearGradient id="paint3_linear" x1="1480.63" y1="-66.3173" x2="483.661" y2="82.759" gradientUnits="userSpaceOnUse">
<stop stop-color="#FFAF2E"/>
<stop offset="1" stop-color="#FFAF2E" stop-opacity="0"/>
</linearGradient>
<linearGradient id="paint4_linear" x1="270.815" y1="2.81412" x2="192.97" y2="485.768" gradientUnits="userSpaceOnUse">
<stop stop-color="#FFAF2E"/>
<stop offset="1" stop-color="#FFAF2E" stop-opacity="0"/>
</linearGradient>
<clipPath id="clip0">
<rect width="1441" height="1024" fill="white"/>
</clipPath>
</defs>
</svg>
